<?xml version="1.0" encoding="UTF-8" standalone="no"?>
<!-- sample rectangle -->

<svg
   width="220"
   height="100"
   version="1.1"
   id="svg4"
   sodipodi:docname="logo.svg"
   inkscape:version="1.3.2 (091e20ef0f, 2023-11-25, custom)"
   xmlns:inkscape="http://www.inkscape.org/namespaces/inkscape"
   xmlns:sodipodi="http://sodipodi.sourceforge.net/DTD/sodipodi-0.dtd"
   xmlns="http://www.w3.org/2000/svg"
   xmlns:svg="http://www.w3.org/2000/svg">
  <defs
     id="defs4" />
  <sodipodi:namedview
     id="namedview4"
     pagecolor="#ffffff"
     bordercolor="#666666"
     borderopacity="1.0"
     inkscape:showpageshadow="2"
     inkscape:pageopacity="0.0"
     inkscape:pagecheckerboard="0"
     inkscape:deskcolor="#d1d1d1"
     inkscape:zoom="6.1272727"
     inkscape:cx="110"
     inkscape:cy="49.940653"
     inkscape:window-width="1920"
     inkscape:window-height="1011"
     inkscape:window-x="0"
     inkscape:window-y="32"
     inkscape:window-maximized="1"
     inkscape:current-layer="svg4" />
  <path
     d="m 34.5,13.7 q 15.1,0 23.5,9.6 8.4,9.6 8.4,26.9 0,11.3 -3.8,19.6 -3.7,8.2 -10.9,12.6 -7.2,4.4 -17.2,4.4 -15.1,0 -23.5,-9.6 -8.3,-9.6 -8.3,-27 0,-11.3 3.7,-19.5 3.8,-8.2 10.9,-12.6 7.2,-4.4 17.2,-4.4 z m 0,13.3 q -6.5,0 -9.6,5.4 -3,5.4 -3,17.8 0,12.4 3.1,17.9 3.1,5.4 9.5,5.4 6.6,0 9.6,-5.4 3,-5.4 3,-17.9 0,-12.4 -3,-17.8 -3,-5.4 -9.6,-5.4 z"
     id="text1"
     style="font-weight:800;font-size:100px;font-family:'Fira Sans', sans-serif;fill:#ed6e46"
     aria-label="O" />
  <path
     d="M 130.3,85 H 107 l -17.6,-52.3 0.3,2.1 q 1,6.9 1.5,13 0.6,6 0.6,13.7 V 85 H 75.4 V 15.5 H 98.2 L 116.4,68 q -1.2,-7.5 -1.9,-13.5 -0.6,-6 -0.6,-13.8 V 15.5 h 16.4 z"
     id="text2"
     style="font-weight:800;font-size:100px;font-family:'Fira Sans', sans-serif;fill:#ed6e46"
     aria-label="Ν" />
  <path
     d="M 158.9,15.5 V 85 H 140.4 V 15.5 Z"
     id="text3"
     style="font-weight:800;font-size:100px;font-family:'Fira Sans', sans-serif"
     aria-label="Ι" />
  <path
     d="m 216.3,15.5 -1.9,14.4 H 188.9 V 85 H 170.4 V 15.5 Z"
     id="text4"
     style="font-weight:800;font-size:100px;font-family:'Fira Sans', sans-serif"
     aria-label="Γ" />
</svg>
